<?xml version="1.0" encoding="UTF-8"?>
<svg id="Layer_1" xmlns="http://www.w3.org/2000/svg" version="1.1" viewBox="0 0 1000 1000">
  <!-- Generator: Adobe Illustrator 30.0.0, SVG Export Plug-In . SVG Version: 2.1.1 Build 123)  -->
  <defs>
    <style>
      .st0 {
        fill: #fff;
        stroke: #231f20;
        stroke-miterlimit: 10;
      }
    </style>
  </defs>
  <path class="st0" d="M521.3,485.21c1.25,33.89,18.97,54.45,53.18,61.68,44.2,9.68,84.39,25.88,120.56,48.59,47.75,29.35,72.28,62.04,73.6,98.05.7,19.07-6.01,38.4-20.14,58.01-25.58,34.88-62.74,53.22-111.46,55.01-26.82.99-59.83-2.41-99-10.15,64.77,49.94,129.62,73.72,194.58,71.33,57.9-2.13,107.21-26.22,147.94-72.25,27.84-31.43,41.07-65.5,39.72-102.21-2.46-67.09-43.76-132.73-123.9-196.95-51.71-41.23-102.18-67.66-151.39-79.28-15.68-3.67-30.59-5.24-44.72-4.72-22.59.83-41.61,7.71-57.04,20.66-15.43,12.94-22.75,30.35-21.94,52.24ZM615.71,820.86s159.62,34.63,244.7-88.87c0,0-64.18,163.5-244.7,88.87ZM703.63,805.45s103.08-31.32,112.43-129.8c0,0,15.55,114.81-112.43,129.8ZM822.6,584.53c9.51,4.66,13.44,16.15,8.78,25.66-4.66,9.51-16.15,13.45-25.66,8.79-9.51-4.66-13.45-16.15-8.78-25.66,4.66-9.51,16.15-13.45,25.66-8.78ZM772.57,531.23c12,5.87,16.95,20.36,11.08,32.35-5.88,12-20.36,16.95-32.36,11.08-12-5.88-16.95-20.36-11.08-32.36,5.88-11.99,20.36-16.95,32.36-11.07ZM697.8,487.22c15.6,7.64,22.06,26.49,14.41,42.09-7.64,15.6-26.49,22.06-42.09,14.41-15.6-7.64-22.06-26.49-14.41-42.09,7.64-15.6,26.49-22.06,42.09-14.41ZM608.91,447.58c20.63,10.1,29.15,35.02,19.05,55.65-10.1,20.63-35.02,29.15-55.65,19.05-20.63-10.1-29.16-35.02-19.05-55.65,10.1-20.63,35.02-29.16,55.65-19.05Z"/>
  <path class="st0" d="M402.7,547.9c18.37-.67,33.85-7.44,46.45-20.27,12.62-12.84,18.58-28.44,17.9-46.79-.21-5.66-1.52-12.32-3.92-20-11.18-34.95-17.43-70.41-18.76-106.43-3.53-96.03,26.48-145.2,90.03-147.54,7.06-.26,13.09-.14,18.05.39,61.04,6.24,109.3,59.62,144.81,160.13,3.38-23.46,4.68-45.78,3.9-66.96-2.15-58.62-17.75-107.89-46.79-147.82-30.55-42.72-73.62-69.78-129.18-81.16-14.25-3-27.74-4.28-40.45-3.81-61.42,2.26-108.85,39.35-142.26,111.28-28.83,61.86-41.86,130.56-39.08,206.13,1.56,42.36,8.51,77.45,20.84,105.29,17.01,39.67,43.17,58.86,78.47,57.56ZM676.78,294.15s-39.12-158.58-187.45-180.65c0,0,175.06-14.3,187.45,180.65ZM458.24,178.11s96.26-64.47,166.02,43.86c0,0-73.48-78.79-166.02-43.86ZM373.55,212.32c0-10.59,8.58-19.18,19.17-19.18,10.6,0,19.18,8.59,19.18,19.18,0,10.6-8.58,19.18-19.18,19.18-10.59,0-19.17-8.58-19.17-19.18ZM347.69,280.7c0-13.36,10.83-24.18,24.18-24.18,13.35,0,24.18,10.83,24.18,24.18,0,13.36-10.83,24.18-24.18,24.18-13.36,0-24.18-10.83-24.18-24.18ZM341.06,367.2c0-17.37,14.08-31.46,31.46-31.46,17.38,0,31.46,14.09,31.46,31.46,0,17.38-14.08,31.46-31.46,31.46-17.38,0-31.46-14.09-31.46-31.46ZM386.15,422.88c22.97,0,41.59,18.62,41.59,41.59,0,22.97-18.62,41.59-41.59,41.59-22.97,0-41.59-18.62-41.59-41.59,0-22.97,18.62-41.59,41.59-41.59Z"/>
  <path class="st0" d="M410.98,802.13c40.33-18.45,74.55-39.86,102.64-64.22,39.05-33.96,57.96-67.54,56.74-100.72-.7-19.06-7.65-34.9-20.83-47.49-13.19-12.61-29.32-18.54-48.38-17.84-18.35.68-33.98,8.26-46.89,22.75-61.85,67.43-121.74,102.23-179.64,104.36-39.53,1.45-67.79-17.23-84.78-56.03-6.95-15.95-10.72-32.02-11.31-48.19-1.55-42.2,24.11-94.18,76.99-155.98-53.63,21.76-96.73,51.63-129.27,89.6-36.6,43.05-53.92,91.07-51.97,144.02.78,21.18,4.74,42.59,11.91,64.26,23.91,73.36,80.34,108.4,169.31,105.13,49.43-1.82,101.26-15.04,155.5-39.66ZM366.42,748.33c8.01,10.68,5.85,25.84-4.84,33.85-10.68,8.01-25.84,5.84-33.85-4.84-8.01-10.69-5.84-25.84,4.84-33.86,10.68-8.01,25.84-5.84,33.85,4.84ZM452.26,666.12c-13.78-18.38-10.05-44.45,8.32-58.23,18.38-13.78,44.45-10.05,58.23,8.32,13.78,18.38,10.05,44.45-8.32,58.23-18.38,13.78-44.45,10.05-58.23-8.32ZM397.02,685.26c13.9-10.42,33.62-7.6,44.04,6.3,10.42,13.9,7.6,33.62-6.3,44.04-13.9,10.42-33.62,7.6-44.04-6.3-10.42-13.9-7.6-33.62,6.3-44.04ZM213.18,755.28s-109.33-38.34-64.51-159.14c0,0-18.95,106.06,64.51,159.14ZM174.91,510.82s-103.4,126.44-32.08,258.36c0,0-116.46-131.49,32.08-258.36ZM264.51,798.69c-6.36-8.48-4.64-20.5,3.84-26.85,8.48-6.36,20.5-4.64,26.85,3.84,6.36,8.48,4.64,20.49-3.84,26.85-8.48,6.36-20.49,4.63-26.85-3.84Z"/>
</svg>